<svg width="325" height="52" viewBox="0 0 325 52" fill="none" xmlns="http://www.w3.org/2000/svg">
<path d="M8.624 2.536L23.6 39.912L19.696 39.208L33.712 2.536H41.776L21.104 51.176L0.496 2.536H8.624ZM50.7155 2.536H57.5635V49H50.7155V2.536ZM83.3265 2.536C85.7585 2.536 87.9985 2.87733 90.0465 3.56C92.1372 4.2 93.9078 5.13866 95.3585 6.376C96.8518 7.61333 98.0038 9.14933 98.8145 10.984C99.6678 12.776 100.095 14.8667 100.095 17.256C100.095 19.0907 99.8172 20.904 99.2625 22.696C98.7078 24.488 97.8118 26.1093 96.5745 27.56C95.3372 29.0107 93.7158 30.184 91.7105 31.08C89.7052 31.9333 87.2092 32.36 84.2225 32.36H77.4385V49H70.5905V2.536H83.3265ZM84.0945 25.832C85.8438 25.832 87.2945 25.5547 88.4465 25C89.6412 24.4453 90.5585 23.7627 91.1985 22.952C91.8812 22.0987 92.3505 21.2027 92.6065 20.264C92.9052 19.2827 93.0545 18.344 93.0545 17.448C93.0545 16.5947 92.9052 15.6987 92.6065 14.76C92.3505 13.8213 91.8812 12.9253 91.1985 12.072C90.5585 11.2187 89.6838 10.5147 88.5745 9.96C87.4652 9.40533 86.0998 9.128 84.4785 9.128H77.4385V25.832H84.0945ZM91.9665 29.8L103.999 49H96.0625L83.8385 29.992L91.9665 29.8ZM108.417 49L128.833 0.679996H129.217L149.633 49H141.825L126.977 11.368L131.905 8.104L115.137 49H108.417ZM120.833 31.592H137.345L139.713 37.48H118.785L120.833 31.592ZM157.966 2.536H164.814V42.408H188.046V49H157.966V2.536ZM198.028 2.536H204.876V42.408H228.108V49H198.028V2.536ZM258.466 2.536H265.314V49H258.466V2.536ZM309.381 42.344H324.997V49H300.357L309.381 42.344ZM275.461 25.832C275.461 22.632 276.058 19.6027 277.253 16.744C278.49 13.8853 280.197 11.3467 282.373 9.128C284.549 6.90933 287.066 5.18133 289.925 3.944C292.783 2.664 295.855 2.024 299.141 2.024C302.383 2.024 305.434 2.664 308.293 3.944C311.151 5.18133 313.69 6.90933 315.909 9.128C318.127 11.3467 319.855 13.8853 321.093 16.744C322.33 19.6027 322.949 22.632 322.949 25.832C322.949 29.1173 322.33 32.1893 321.093 35.048C319.855 37.9067 318.127 40.424 315.909 42.6C313.733 44.776 311.194 46.4827 308.293 47.72C305.434 48.9147 302.383 49.512 299.141 49.512C295.855 49.512 292.783 48.9147 289.925 47.72C287.066 46.5253 284.549 44.8613 282.373 42.728C280.197 40.552 278.49 38.0347 277.253 35.176C276.058 32.2747 275.461 29.16 275.461 25.832ZM282.501 25.896C282.501 28.2 282.927 30.3973 283.781 32.488C284.677 34.536 285.893 36.3493 287.429 37.928C288.965 39.464 290.735 40.68 292.741 41.576C294.789 42.472 296.986 42.92 299.333 42.92C301.637 42.92 303.791 42.472 305.797 41.576C307.802 40.68 309.551 39.464 311.045 37.928C312.581 36.392 313.775 34.6 314.629 32.552C315.482 30.4613 315.909 28.2213 315.909 25.832C315.909 23.4853 315.461 21.288 314.565 19.24C313.711 17.192 312.517 15.4 310.981 13.864C309.487 12.2853 307.717 11.048 305.669 10.152C303.663 9.256 301.509 8.808 299.205 8.808C296.815 8.808 294.618 9.256 292.613 10.152C290.607 11.048 288.837 12.2853 287.301 13.864C285.765 15.4427 284.57 17.256 283.717 19.304C282.906 21.352 282.501 23.5493 282.501 25.896Z" fill="black"/>
</svg>
